<svg width="578" height="675" xmlns="http://www.w3.org/2000/svg">
 <title>sync_files</title>

 <g>
  <title>background</title>
  <rect fill="none" id="canvas_background" height="782.81" width="822.16" y="-1" x="-1"/>
 </g>
 <g>
  <title>Layer 1</title>
  <path id="svg_1" fill="#f2f2f2" d="m383,0l-370,0a13.01442,13.01442 0 0 0 -13,13l0,500a13.01474,13.01474 0 0 0 13,13l370,0a13.01505,13.01505 0 0 0 13,-13l0,-500a13.01474,13.01474 0 0 0 -13,-13z"/>
  <path id="svg_2" fill="#fff" d="m24.42966,16a9.08459,9.08459 0 0 0 -8.92966,9.21212l0,475.57576a9.08459,9.08459 0 0 0 8.92966,9.21212l347.14068,0a9.08459,9.08459 0 0 0 8.92966,-9.21212l0,-475.57576a9.08459,9.08459 0 0 0 -8.92966,-9.21212l-347.14068,0z"/>
  <path id="svg_3" fill="#e6e6e6" d="m42.5,38c-3.30859,0 -6,3.03744 -6,6.77143l0,65.45714c0,3.734 2.69141,6.77143 6,6.77143l311,0c3.30859,0 6,-3.03744 6,-6.77143l0,-65.45714c0,-3.734 -2.69141,-6.77143 -6,-6.77143l-311,0z"/>
  <path id="svg_4" fill="#e6e6e6" d="m42.5,148.75a6.09464,6.09464 0 0 0 -6,6.1723l0,139.9054a6.09464,6.09464 0 0 0 6,6.1723l311,0a6.09464,6.09464 0 0 0 6,-6.1723l0,-139.9054a6.09464,6.09464 0 0 0 -6,-6.1723l-311,0z"/>
  <rect id="svg_5" fill="#fff" height="14" width="246" y="47.25" x="75"/>
  <rect id="svg_6" fill="#fff" height="6.5" width="246" y="76.75" x="75.5"/>
  <rect id="svg_7" fill="#fff" height="6.5" width="246" y="88.25" x="75.5"/>
  <rect id="svg_8" fill="#fff" height="6.5" width="246" y="99.75" x="75.5"/>
  <path id="svg_9" fill="#fff" d="m221.1626,301.25l113.21094,0a3.6445,3.6445 0 0 0 2.57714,-6.22119l-72.45654,-72.45654a3.64844,3.64844 0 0 0 -5.15381,0l-18.01806,18.01806a7.64285,7.64285 0 0 1 -10.81006,0l-56.43506,-56.43506a3.64905,3.64905 0 0 0 -5.1543,0l-110.37353,110.37354a3.6445,3.6445 0 0 0 2.57714,6.22119l160.18116,0l-0.14502,0.5z"/>
  <circle id="svg_10" fill="#fff" r="14" cy="181.75" cx="86.5"/>
  <path id="svg_11" fill="#e6e6e6" d="m42.5,333.75a6.09464,6.09464 0 0 0 -6,6.1723l0,139.9054a6.09464,6.09464 0 0 0 6,6.1723l311,0a6.09464,6.09464 0 0 0 6,-6.1723l0,-139.9054a6.09464,6.09464 0 0 0 -6,-6.1723l-311,0z"/>
  <path id="svg_12" fill="#fff" d="m221.1626,486.25l113.21094,0a3.64489,3.64489 0 0 0 2.57714,-6.22168l-72.45654,-72.456a3.6502,3.6502 0 0 0 -5.15381,0l-18.01806,18.01757a7.64107,7.64107 0 0 1 -10.81055,0l-56.43457,-56.43457a3.65082,3.65082 0 0 0 -5.1543,0l-110.37353,110.373a3.64489,3.64489 0 0 0 2.57714,6.22168l160.18116,0l-0.14502,0.5z"/>
  <circle id="svg_13" fill="#fff" r="14" cy="366.75" cx="86.5"/>
  <path id="svg_14" fill="#e6e6e6" d="m143,115a9.01047,9.01047 0 0 0 -9,9l0,500a9.01016,9.01016 0 0 0 9,9l370,0a9.00984,9.00984 0 0 0 9,-9l0,-500a9.01016,9.01016 0 0 0 -9,-9l-370,0z"/>
  <path id="svg_15" fill="#fff" d="m153.92966,129a9.08459,9.08459 0 0 0 -8.92966,9.21212l0,475.57576a9.08459,9.08459 0 0 0 8.92966,9.21212l347.14068,0a9.08459,9.08459 0 0 0 8.92966,-9.21212l0,-475.57576a9.08459,9.08459 0 0 0 -8.92966,-9.21212l-347.14068,0z"/>
  <path id="svg_16" fill="#009900" d="m208.25,198.18262a4.00458,4.00458 0 0 0 -4,4l0,18.35888a4.00458,4.00458 0 0 0 4,4l236,0a4.00427,4.00427 0 0 0 4,-4l0,-18.35888a4.00427,4.00427 0 0 0 -4,-4l-236,0z"/>
  <path id="svg_17" fill="#ccc" d="m206.75,258.939a1.00131,1.00131 0 0 0 -1,1l0,7.167a1.0013,1.0013 0 0 0 1,1l240,0a1.001,1.001 0 0 0 1,-1l0,-7.167a1.001,1.001 0 0 0 -1,-1l-240,0z"/>
  <path id="svg_18" fill="#ccc" d="m206.75,282.23389a1.0013,1.0013 0 0 0 -1,1l0,7.167a1.0013,1.0013 0 0 0 1,1l240,0a1.001,1.001 0 0 0 1,-1l0,-7.167a1.001,1.001 0 0 0 -1,-1l-240,0z"/>
  <path id="svg_19" fill="#ccc" d="m206.75,305.52881a1.0013,1.0013 0 0 0 -1,1l0,7.1665a1.0013,1.0013 0 0 0 1,1l240,0a1.001,1.001 0 0 0 1,-1l0,-7.1665a1.001,1.001 0 0 0 -1,-1l-240,0z"/>
  <path id="svg_20" fill="#ccc" d="m206.25,352.061a1.0013,1.0013 0 0 0 -1,1l0,7.1665a1.0013,1.0013 0 0 0 1,1l240,0a1.001,1.001 0 0 0 1,-1l0,-7.1665a1.001,1.001 0 0 0 -1,-1l-240,0z"/>
  <path id="svg_21" fill="#ccc" d="m206.25,375.356a1.0013,1.0013 0 0 0 -1,1l0,7.1665a1.0013,1.0013 0 0 0 1,1l240,0a1.001,1.001 0 0 0 1,-1l0,-7.1665a1.001,1.001 0 0 0 -1,-1l-240,0z"/>
  <path id="svg_22" fill="#ccc" d="m206.25,398.65039a1.001,1.001 0 0 0 -1,1l0,7.167a1.001,1.001 0 0 0 1,1l240,0a1.00067,1.00067 0 0 0 1,-1l0,-7.167a1.00067,1.00067 0 0 0 -1,-1l-240,0z"/>
  <path id="svg_23" fill="#ccc" d="m206.25,422.06055a1.001,1.001 0 0 0 -1,1l0,7.167a1.001,1.001 0 0 0 1,1l240,0a1.00067,1.00067 0 0 0 1,-1l0,-7.167a1.00067,1.00067 0 0 0 -1,-1l-240,0z"/>
  <path id="svg_24" fill="#ccc" d="m206.25,445.35547a1.001,1.001 0 0 0 -1,1l0,7.167a1.001,1.001 0 0 0 1,1l240,0a1.00067,1.00067 0 0 0 1,-1l0,-7.167a1.00067,1.00067 0 0 0 -1,-1l-240,0z"/>
  <path id="svg_25" fill="#ccc" d="m206.25,468.65039a1.001,1.001 0 0 0 -1,1l0,7.167a1.001,1.001 0 0 0 1,1l240,0a1.00067,1.00067 0 0 0 1,-1l0,-7.167a1.00067,1.00067 0 0 0 -1,-1l-240,0z"/>
  <path id="svg_26" fill="#ccc" d="m206.25,492.06055a1.001,1.001 0 0 0 -1,1l0,7.167a1.001,1.001 0 0 0 1,1l240,0a1.00067,1.00067 0 0 0 1,-1l0,-7.167a1.00067,1.00067 0 0 0 -1,-1l-240,0z"/>
  <path id="svg_27" fill="#ccc" d="m206.25,515.35547a1.001,1.001 0 0 0 -1,1l0,7.167a1.001,1.001 0 0 0 1,1l240,0a1.00067,1.00067 0 0 0 1,-1l0,-7.167a1.00067,1.00067 0 0 0 -1,-1l-240,0z"/>
  <path id="svg_28" fill="#ccc" d="m206.25,538.65039a1.001,1.001 0 0 0 -1,1l0,7.167a1.001,1.001 0 0 0 1,1l240,0a1.00067,1.00067 0 0 0 1,-1l0,-7.167a1.00067,1.00067 0 0 0 -1,-1l-240,0z"/>
  <circle id="svg_29" fill="#009900" r="73" cy="602" cx="505"/>
  <polygon id="svg_30" fill="#fff" points="498.044 632.815 476.194 604.723 488.9 594.839 499.246 608.141 534.195 571.248 545.882 582.32 498.044 632.815"/>
 </g>
</svg>