<svg width="820.16" height="780.81" xmlns="http://www.w3.org/2000/svg" xmlns:xlink="http://www.w3.org/1999/xlink">
 <defs>
  <linearGradient y2="0" x2="0.49999" y1="1" x1="0.49999" id="07332201-7176-49c2-9908-6dc4a39c4716">
   <stop stop-opacity="0.25" stop-color="gray" offset="0"/>
   <stop stop-opacity="0.12" stop-color="gray" offset="0.54"/>
   <stop stop-opacity="0.1" stop-color="gray" offset="1"/>
  </linearGradient>
  <linearGradient xlink:href="#07332201-7176-49c2-9908-6dc4a39c4716" gradientTransform="matrix(1, 0, 0, 1, 0, 0)" y2="127.12" x2="476.4" y1="710.53" x1="476.4" id="2632d424-e666-4ee4-9508-a494957e14ab"/>
  <linearGradient xlink:href="#07332201-7176-49c2-9908-6dc4a39c4716" gradientTransform="matrix(1, 0, 0, 1, 0, 0)" y2="106.68" x2="476.94" y1="156.13" x1="476.94" id="97571ef7-1c83-4e06-b701-c2e47e77dca3"/>
  <linearGradient xlink:href="#07332201-7176-49c2-9908-6dc4a39c4716" gradientTransform="matrix(1, 0, 0, 1, 0, 0)" y2="117.95" x2="666.86" y1="176.39" x1="666.86" id="7d32e13e-a0c7-49c4-af0e-066a2f8cb76e"/>
 </defs>
 <title>no data</title>
 <g>
  <title>background</title>
  <rect fill="none" id="canvas_background" height="782.81" width="822.16" y="-1" x="-1"/>
 </g>
 <g>
  <title>Layer 1</title>
  <rect id="svg_9" fill="#e0e0e0" height="603.82" width="437.02" y="69.08443" x="200.28193"/>
  <g id="svg_10" opacity="0.5">
   <rect id="svg_11" fill="url(#2632d424-e666-4ee4-9508-a494957e14ab)" height="583.41" width="422.25" y="79.29443" x="207.67193"/>
  </g>
  <rect id="svg_12" fill="#fff" height="570.52" width="411.5" y="83.59444" x="213.04193"/>
  <rect id="svg_13" fill="url(#97571ef7-1c83-4e06-b701-c2e47e77dca3)" height="49.45" width="204.14" y="58.85444" x="317.26193"/>
  <path id="svg_14" fill="url(#7d32e13e-a0c7-49c4-af0e-066a2f8cb76e)" d="m419.33193,10.58443c-15.76,0 -28.54,13.08 -28.54,29.22s12.78,29.22 28.54,29.22s28.54001,-13.08 28.54001,-29.22s-12.78,-29.22 -28.54001,-29.22zm0,46.08a16.86,16.86 0 1 1 16.46,-16.86a16.66,16.66 0 0 1 -16.46,16.78l0,0.08z"/>
  <rect id="svg_15" fill="#670b4e" height="47.27" width="199.84" y="56.73443" x="319.41193"/>
  <path id="svg_16" fill="#670b4e" d="m419.33193,10.58443a27.93,27.93 0 1 0 27.93,27.93a27.93,27.93 0 0 0 -27.93,-27.93zm0,44.05a16.12,16.12 0 1 1 16.14,-16.16a16.12,16.12 0 0 1 -16.14,16.11l0,0.05z"/>
  <text stroke="null" transform="matrix(0.9581783413887023,0,0,1,12.017393190413712,0) " xml:space="preserve" text-anchor="start" font-family="Helvetica, Arial, sans-serif" font-size="24" id="svg_35" y="272.44714" x="270.75718" fill-opacity="null" stroke-opacity="null" stroke-width="0" fill="#000000">Document format supported :</text>
  <text xml:space="preserve" text-anchor="start" font-family="Helvetica, Arial, sans-serif" font-size="24" id="svg_36" y="353.17351" x="391.29776" fill-opacity="null" stroke-opacity="null" stroke-width="0" stroke="null" fill="#000000">.jpg</text>
  <text xml:space="preserve" text-anchor="start" font-family="Helvetica, Arial, sans-serif" font-size="24" id="svg_38" y="387.2163" x="388.21081" fill-opacity="null" stroke-opacity="null" stroke-width="0" stroke="null" fill="#000000">.png</text>
  <text xml:space="preserve" text-anchor="start" font-family="Helvetica, Arial, sans-serif" font-size="24" id="svg_39" y="318.95574" x="385.94998" fill-opacity="null" stroke-opacity="null" stroke-width="0" stroke="null" fill="#000000">.jpeg</text>
  <text xml:space="preserve" text-anchor="start" font-family="Helvetica, Arial, sans-serif" font-size="24" id="svg_1" y="421.92054" x="391.79195" fill-opacity="null" stroke-opacity="null" stroke-width="0" stroke="null" fill="#000000">.pdf</text>
 </g>
</svg>